# xmcd
#
# Track frame offsets:
# 150
# 18674
# 36898
# 51811
# 67953
# 90854
# 108782
# 126755
# 144909
# 166948
# 188995
# 209419
#
# Disc length: 3050 seconds
#
#
# Revision: 2
# Processed by: cddbd v1.5.2PL0 Copyright (c) Steve Scherf et al.
# Submitted via: FreeRIP 2.951 
#
DISCID=9a0be80c
DTITLE=Ayo - Joyful
DYEAR=2006
DGENRE=Pop
TTITLE0=Down on my knees
TTITLE1=Without you
TTITLE2=Letter by letter
TTITLE3=How many times ?
TTITLE4=And it's supposed to be love
TTITLE5=Watching you
TTITLE6=Only you
TTITLE7=Help is coming
TTITLE8=These days
TTITLE9=Life is real
TTITLE10=What is love ?
TTITLE11=Neva been
EXTD=
EXTT0=
EXTT1=
EXTT2=
EXTT3=
EXTT4=
EXTT5=
EXTT6=
EXTT7=
EXTT8=
EXTT9=
EXTT10=
EXTT11=
PLAYORDER=
